<svg xmlns="http://www.w3.org/2000/svg" style="display: none;">
<symbol id="facebook" viewBox="0 0 100 100">
	<g>
		<path class="websiteSVGcolor" d="M70.1,23.2h-7.4c-5.8,0-6.9,2.8-6.9,6.8v8.9h13.8l-1.8,13.9h-12v35.8H41.4V52.8h-12V38.8h12V28.6
			c0-11.9,7.3-18.4,18-18.4c5.1,0,9.5,0.4,10.7,0.6V23.2z"></path>
	</g>
</symbol>
<symbol id="pinterest" viewBox="0 0 100 100">
	<g>
		<path class="websiteSVGcolor" d="M49.8,85.5c-3.6,0-7-0.5-10.3-1.5c1.4-2.2,2.9-4.9,3.7-7.7c0,0,0.4-1.6,2.5-9.9c1.2,2.4,4.9,4.5,8.8,4.5
			c11.6,0,19.6-10.6,19.6-24.8c0-10.7-9.1-20.7-22.9-20.7c-17.1,0-25.8,12.3-25.8,22.6c0,6.2,2.4,11.8,7.4,13.9
			c0.8,0.3,1.6,0,1.8-0.9c0.2-0.6,0.6-2.2,0.8-2.9c0.2-0.9,0.1-1.2-0.5-2c-1.5-1.7-2.4-4-2.4-7.1c0-9.1,6.8-17.3,17.8-17.3
			c9.7,0,15.1,5.9,15.1,13.9c0,10.4-4.6,19.2-11.5,19.2c-3.8,0-6.6-3.1-5.7-7c1.1-4.6,3.2-9.5,3.2-12.8c0-3-1.6-5.5-4.9-5.5
			c-3.9,0-7,4-7,9.4c0,0,0,3.4,1.2,5.7c-4,16.8-4.7,19.7-4.7,19.7c-0.7,2.7-0.7,5.8-0.6,8.3c-12.8-5.6-21.7-18.3-21.7-33.2
			c0-20,16.2-36.2,36.2-36.2c20,0,36.2,16.2,36.2,36.2C85.9,69.3,69.7,85.5,49.8,85.5z"></path>
	</g>
</symbol>
<symbol id="instagram" viewBox="0 0 100 100">
	<g>
		<path class="websiteSVGcolor" d="M85.7,64.3c-0.3,5.8-1.6,10.9-5.8,15.2c-4.2,4.2-9.4,5.6-15.2,5.8c-5,0.3-9.9,0.2-14.9,0.2
			c-5,0-9.9,0-14.9-0.2C29,85,23.9,83.7,19.7,79.5c-4.2-4.2-5.6-9.4-5.8-15.2c-0.3-5-0.2-9.9-0.2-14.9c0-5,0-9.9,0.2-14.9
			c0.3-5.8,1.6-10.9,5.8-15.2c4.2-4.2,9.4-5.6,15.2-5.8c5-0.3,9.9-0.2,14.9-0.2c5,0,9.9,0,14.9,0.2c5.8,0.3,10.9,1.6,15.2,5.8
			c4.2,4.2,5.6,9.4,5.8,15.2c0.3,5,0.2,9.9,0.2,14.9C85.9,54.3,86,59.3,85.7,64.3z M28.4,21.1c-1.6,0.7-2.9,1.5-4.1,2.7
			c-1.3,1.3-2.1,2.5-2.7,4.1c-1.9,4.8-1.5,16.1-1.5,21.3s-0.4,16.6,1.5,21.3c0.7,1.6,1.5,2.9,2.7,4.1c1.3,1.3,2.5,2.1,4.1,2.7
			c4.8,1.9,16.1,1.5,21.3,1.5s16.6,0.4,21.3-1.5c1.6-0.7,2.9-1.5,4.1-2.7c1.3-1.3,2.1-2.5,2.7-4.1c1.9-4.8,1.5-16.1,1.5-21.3
			S79.9,32.8,78,28c-0.7-1.6-1.5-2.9-2.7-4.1c-1.3-1.3-2.5-2.1-4.1-2.7c-4.8-1.9-16.1-1.5-21.3-1.5S33.2,19.2,28.4,21.1z M49.8,67.9
			c-10.3,0-18.6-8.3-18.6-18.6s8.3-18.6,18.6-18.6s18.6,8.3,18.6,18.6S60,67.9,49.8,67.9z M49.8,37.3c-6.6,0-12.1,5.4-12.1,12.1
			s5.4,12.1,12.1,12.1S61.8,56,61.8,49.4S56.4,37.3,49.8,37.3z M69.1,34.4c-2.4,0-4.3-1.9-4.3-4.3s1.9-4.3,4.3-4.3s4.3,1.9,4.3,4.3
			S71.5,34.4,69.1,34.4z"></path>
	</g>
</symbol>
<symbol id="twitter" viewBox="0 0 100 100">
	<g>
		<path class="websiteSVGcolor" d="M79.2,34.2c0,0.7,0,1.3,0,2C79.3,56.3,64,79.5,36,79.5c-8.6,0-16.6-2.5-23.4-6.8c1.2,0.1,2.4,0.2,3.7,0.2
			c7.1,0,13.7-2.4,18.9-6.5c-6.7-0.1-12.3-4.5-14.2-10.6c0.9,0.1,1.9,0.2,2.9,0.2c1.4,0,2.7-0.2,4-0.5c-7-1.4-12.2-7.5-12.2-14.9
			c0,0,0-0.1,0-0.2c2,1.1,4.4,1.8,6.9,1.9c-4.1-2.7-6.8-7.4-6.8-12.7c0-2.8,0.8-5.4,2.1-7.7c7.5,9.2,18.8,15.3,31.4,15.9
			c-0.2-1.1-0.4-2.3-0.4-3.5c0-8.4,6.8-15.2,15.2-15.2c4.4,0,8.3,1.8,11.1,4.8c3.4-0.7,6.7-1.9,9.7-3.7c-1.1,3.5-3.5,6.5-6.7,8.4
			c3.1-0.3,6-1.2,8.8-2.4C84.8,29.4,82.2,32.1,79.2,34.2z"></path>
	</g>
</symbol>
<symbol id="linkedin" viewBox="0 0 100 100">
	<g>
		<path class="websiteSVGcolor" d="M22.2,30.9L22.2,30.9c-5.3,0-8.7-3.6-8.7-8.1c0-4.6,3.5-8.1,8.8-8.1c5.3,0,8.6,3.5,8.7,8.1
			C31.1,27.3,27.7,30.9,22.2,30.9z M30,83.9H14.5V37.2H30V83.9z M85.9,83.9H70.4V59c0-6.3-2.3-10.6-7.9-10.6c-4.3,0-6.8,2.9-8,5.7
			c-0.4,1-0.5,2.4-0.5,3.8v26.1H38.6c0.2-42.3,0-46.7,0-46.7h15.5V44H54c2-3.2,5.7-7.9,14.1-7.9c10.2,0,17.9,6.7,17.9,21V83.9z"></path>
	</g>
</symbol>
<symbol id="behance" viewBox="0 0 100 100">
	<g>
		<path class="websiteSVGcolor" d="M29.5,19.1c10.2,0,19,2.9,19,14.7c0,6-2.8,9.8-8.1,12.4c7.3,2.1,10.8,7.6,10.8,15c0,12.1-10.1,17.2-20.9,17.2
			H1.5V19.1H29.5z M27.8,43.1c4.7,0,8-2,8-7.1c0-5.5-4.2-6.8-9-6.8H14.6v13.9H27.8z M28.5,68.4c5.3,0,9.7-1.9,9.7-7.9
			c0-6.1-3.6-8.5-9.4-8.5H14.6v16.3H28.5z M86.8,65.1h10.4C94,75,87.4,79.6,77.1,79.6c-13.6,0-22-9.2-22-22.6
			c0-12.9,8.9-22.8,22-22.8C90.6,34.3,98,44.9,98,57.6c0,0.8,0,1.5-0.1,2.2h-31c0,6.9,3.6,10.9,10.6,10.9
			C81,70.7,85.7,68.8,86.8,65.1z M64.5,23.1V29h24.1v-5.8H64.5z M66.9,52.4h19.2c-0.5-5.7-3.5-9.2-9.4-9.2
			C71.1,43.2,67.3,46.7,66.9,52.4z"></path>
	</g>
</symbol>
<symbol id="dribbble" viewBox="0 0 100 100">
	<g>
		<path class="websiteSVGcolor" d="M49.8,85.5c-20,0-36.2-16.2-36.2-36.2c0-20,16.2-36.2,36.2-36.2c20,0,36.2,16.2,36.2,36.2
			C85.9,69.3,69.7,85.5,49.8,85.5z M50.6,44c-15.9,4.8-31.2,4.4-31.7,4.4c0,0.3,0,0.7,0,1c0,7.9,3,15.2,7.9,20.6
			c8.4-15,25.1-20.4,25.1-20.4c0.4-0.1,0.8-0.2,1.2-0.4C52.3,47.5,51.5,45.7,50.6,44z M36.6,21.4c-8.6,4.1-15,12-17.1,21.6
			c0.8,0,13.7,0.1,28.6-3.8C42.7,29.7,37,22,36.6,21.4z M55.2,54.3c0,0-0.1,0-0.2,0c0,0-18.3,6.4-24.3,19.3
			c-0.3-0.2-0.7-0.5-0.7-0.5c5.4,4.4,12.2,7.1,19.7,7.1c4.3,0,8.3-0.9,12.1-2.4C61.3,75.1,59.6,65.7,55.2,54.3z M42.3,19.4
			C42.3,19.4,42.3,19.3,42.3,19.4C42.3,19.3,42.3,19.3,42.3,19.4z M49.8,18.4c-2.5,0-4.9,0.3-7.3,0.9c0.5,0.6,6.3,8.3,11.6,18
			c11.6-4.3,16-11,16.1-11.2C64.7,21.4,57.6,18.4,49.8,18.4z M73.6,29.7c-0.1,0.1-5,7.3-17.2,12.2c0.7,1.5,1.4,3,2.1,4.5
			c0.2,0.5,0.4,1.1,0.7,1.6c10.6-1.4,21.2,0.9,21.5,1C80.6,41.7,78,35,73.6,29.7z M61,52.9c4.1,11.2,5.7,20.3,6,22.1
			c6.9-4.7,11.8-12.1,13.2-20.7C79.6,54.1,71,51.3,61,52.9z"></path>
	</g>
</symbol>
<symbol id="vimeo" viewBox="0 0 100 100">
	<g>
		<path class="websiteSVGcolor" d="M72.4,62.2C62,75.7,53.2,82.5,45.9,82.5c-4.5,0-8.2-4.1-11.3-12.4c-2.1-7.5-4.1-15.1-6.2-22.7
			c-2.3-8.2-4.8-12.3-7.4-12.3c-0.6,0-2.5,1.2-6,3.6L11.4,34c3.8-3.3,7.5-6.7,11.2-10c5-4.4,8.8-6.6,11.4-6.9c6-0.6,9.6,3.5,11,12.2
			c1.5,9.4,2.5,15.3,3.1,17.6c1.7,7.8,3.6,11.7,5.7,11.7c1.6,0,4-2.5,7.3-7.6c3.2-5.1,4.9-9,5.1-11.6c0.4-4.4-1.3-6.5-5.1-6.5
			c-1.8,0-3.7,0.4-5.7,1.2c3.8-12.3,11-18.3,21.6-18c7.9,0.2,11.6,5.4,11.1,15.4C87.7,39,82.5,49.2,72.4,62.2z"></path>
	</g>
</symbol>
<symbol id="codepen" viewBox="0 0 100 100">
	<g>
		<path class="websiteSVGcolor" d="M92,62.2c0,1.2-0.6,2.4-1.6,3L51.8,91c-0.6,0.4-1.3,0.6-2,0.6s-1.4-0.2-2-0.6L9.1,65.2c-1-0.7-1.6-1.8-1.6-3
			V36.5c0-1.2,0.6-2.4,1.6-3L47.7,7.8c0.6-0.4,1.3-0.6,2-0.6s1.4,0.2,2,0.6l38.6,25.7c1,0.7,1.6,1.8,1.6,3V62.2z M23.9,49.4
			l-9.1-6.1v12.2L23.9,49.4z M46.1,34.5V17.6L17.7,36.5L30.4,45L46.1,34.5z M46.1,81.2V64.2L30.4,53.7l-12.7,8.5L46.1,81.2z
			 M62.6,49.4l-12.8-8.6l-12.8,8.6l12.8,8.6L62.6,49.4z M81.8,36.5L53.4,17.6v16.9L69.1,45L81.8,36.5z M81.8,62.2l-12.7-8.5
			L53.4,64.2v16.9L81.8,62.2z M84.7,55.4V43.3l-9.1,6.1L84.7,55.4z"></path>
	</g>
</symbol>
<symbol id="github" viewBox="0 0 100 100">
	<g>
		<path class="websiteSVGcolor" d="M85.9,50.2c0,16-10.4,29.5-24.7,34.3c-1.8,0.3-2.5-0.8-2.5-1.7c0-1.2,0-5.1,0-9.9c0-3.4-1.1-5.6-2.4-6.7
			c8.1-0.9,16.5-4,16.5-17.9c0-4-1.4-7.2-3.7-9.7c0.4-0.9,1.6-4.6-0.4-9.6c-3-0.9-9.9,3.7-9.9,3.7c-2.9-0.8-6-1.2-9-1.2
			c-3.1,0-6.2,0.4-9,1.2c0,0-6.9-4.7-9.9-3.7c-2,5-0.8,8.7-0.4,9.6c-2.3,2.5-3.7,5.7-3.7,9.7c0,13.9,8.4,17,16.5,17.9
			c-1,0.9-2,2.5-2.3,4.9c-2.1,0.9-7.3,2.5-10.5-3c-2-3.4-5.6-3.7-5.6-3.7c-3.5,0-0.2,2.2-0.2,2.2c2.4,1.1,4,5.3,4,5.3
			c2.1,6.5,12.2,4.3,12.2,4.3c0,3,0,5.8,0,6.7c0,0.9-0.7,2.1-2.5,1.7c-14.4-4.8-24.7-18.4-24.7-34.3c0-20,16.2-36.2,36.2-36.2
			C69.7,14.1,85.9,30.3,85.9,50.2z M27,65.5c-0.3-0.1-0.5,0-0.6,0.1c-0.1,0.2,0,0.4,0.3,0.6c0.2,0.1,0.5,0.1,0.6-0.1
			C27.4,65.8,27.2,65.6,27,65.5z M28.7,66.9c-0.2-0.2-0.6-0.3-0.8-0.1c-0.2,0.1-0.1,0.5,0.1,0.8c0.2,0.2,0.6,0.3,0.8,0.1
			C28.9,67.5,28.9,67.2,28.7,66.9z M30.2,68.9c-0.2-0.3-0.6-0.5-0.8-0.3c-0.2,0.1-0.2,0.5,0,0.8c0.2,0.3,0.6,0.5,0.8,0.3
			C30.4,69.6,30.4,69.2,30.2,68.9z M31.9,70.8c-0.3-0.3-0.8-0.4-0.9-0.1c-0.2,0.2-0.1,0.6,0.2,0.9c0.3,0.3,0.8,0.4,0.9,0.1
			C32.3,71.5,32.2,71.1,31.9,70.8z M34.2,72.2c-0.4-0.1-0.8,0-0.9,0.3c-0.1,0.3,0.2,0.6,0.6,0.7c0.4,0.1,0.8,0,0.9-0.3
			C34.9,72.6,34.6,72.3,34.2,72.2z M37,72.6c-0.4,0-0.8,0.2-0.8,0.5c0,0.3,0.3,0.6,0.8,0.5c0.4,0,0.8-0.2,0.8-0.5
			C37.8,72.8,37.4,72.6,37,72.6z M39.7,72.2C39.3,72.3,39,72.6,39,73c0,0.3,0.4,0.5,0.8,0.4c0.4-0.1,0.7-0.4,0.7-0.7
			C40.5,72.4,40.1,72.2,39.7,72.2z"></path>
	</g>
</symbol>
<symbol id="medium" viewBox="0 0 100 100">
	<path class="websiteSVGcolor" d="M17.2,29.3c0.1-1.1-0.3-2.1-1.1-2.8l-8-9.6v-1.4h24.8l19.1,42l16.8-42h23.6v1.4l-6.8,6.5
		c-0.6,0.4-0.9,1.2-0.8,1.9v48c-0.1,0.7,0.2,1.5,0.8,1.9l6.7,6.5v1.4H58.8v-1.4l6.9-6.7c0.7-0.7,0.7-0.9,0.7-1.9V34.4L47.2,83.1
		h-2.6L22.3,34.4V67c-0.2,1.4,0.3,2.8,1.2,3.7l9,10.9v1.4H7v-1.4l9-10.9c1-1,1.4-2.4,1.2-3.7C17.2,67,17.2,29.3,17.2,29.3z"></path>
</symbol>
<symbol id="clipboard" viewBox="0 0 100 100">
	<g>
		<polygon class="websiteSVGcolor" points="66.9,78 66.9,69.5 64.1,69.5 64.1,78 55.5,78 55.5,80.9 64.1,80.9 64.1,89.4 66.9,89.4 66.9,80.9 
			75.5,80.9 75.5,78 		"></polygon>
		<circle class="websiteSVGcolor" cx="45.5" cy="13.8" r="1.8"></circle>
		<path class="websiteSVGcolor" d="M73,65.3V23.8c0-3.3-2.7-6.1-6.1-6.1h-2.5c-0.2-3.2-2.8-5.7-6.1-5.7h-2.5c-0.2-4.7-4.1-8.6-8.9-8.6h-2.8
			c-4.8,0-8.7,3.8-8.9,8.6h-2.5c-3.2,0-5.9,2.5-6.1,5.7h-2.5c-3.3,0-6.1,2.7-6.1,6.1v59.9c0,3.3,2.7,6.1,6.1,6.1h29.1
			c3.1,3.6,7.5,5.7,12.3,5.7c8.8,0,16-7.2,16-16C81.5,73.5,78.3,68,73,65.3z M65.5,63.4c-8.8,0-16,7.2-16,16c0,2.4,0.5,4.6,1.5,6.8
			H24.1c-1.4,0-2.5-1.1-2.5-2.5V23.8c0-1.4,1.1-2.5,2.5-2.5h2.5c0.2,3.2,2.8,5.7,6.1,5.7h25.7c3.2,0,5.9-2.5,6.1-5.7h2.5
			c1.4,0,2.5,1.1,2.5,2.5v40.1C68.1,63.6,66.8,63.4,65.5,63.4z M65.5,91.9c-6.9,0-12.5-5.6-12.5-12.5C53,72.6,58.6,67,65.5,67
			S78,72.6,78,79.5C78,86.3,72.4,91.9,65.5,91.9z M44.1,7.1h2.8c3,0,5.4,2.4,5.4,5.3v3.2h6.1c1.4,0,2.5,1.1,2.5,2.5V21
			c0,1.4-1.1,2.5-2.5,2.5H32.7c-1.4,0-2.5-1.1-2.5-2.5v-2.9c0-1.4,1.1-2.5,2.5-2.5h6.1v-3.2C38.7,9.5,41.1,7.1,44.1,7.1z"></path>
	</g>
</symbol>
<symbol id="info" viewBox="0 0 100 100">
	<g>
		<path class="websiteSVGcolor" d="M49.8,92.1C26.3,92.1,7.2,73,7.2,49.5S26.3,6.9,49.8,6.9S92.4,26,92.4,49.5S73.3,92.1,49.8,92.1z M64,67.2
			c0-1-0.8-1.8-1.8-1.8h-5.3V37.1c0-1-0.8-1.8-1.8-1.8H37.4c-1,0-1.8,0.8-1.8,1.8v8.9c0,1,0.8,1.8,1.8,1.8h5.3v17.7h-5.3
			c-1,0-1.8,0.8-1.8,1.8v8.9c0,1,0.8,1.8,1.8,1.8h24.8c1,0,1.8-0.8,1.8-1.8V67.2z M56.9,17.6c0-1-0.8-1.8-1.8-1.8H44.5
			c-1,0-1.8,0.8-1.8,1.8v8.9c0,1,0.8,1.8,1.8,1.8h10.6c1,0,1.8-0.8,1.8-1.8V17.6z"></path>
	</g>
</symbol>
</svg>