<?xml version="1.0" standalone="no"?>
<!DOCTYPE svg PUBLIC "-//W3C//DTD SVG 20010904//EN"
 "http://www.w3.org/TR/2001/REC-SVG-20010904/DTD/svg10.dtd">
<svg version="1.0" xmlns="http://www.w3.org/2000/svg"
 width="260.000000pt" height="260.000000pt" viewBox="0 0 260.000000 260.000000"
 preserveAspectRatio="xMidYMid meet">
<metadata>
Created by potrace 1.11, written by Peter Selinger 2001-2013
</metadata>
<g transform="translate(0.000000,260.000000) scale(0.100000,-0.100000)"
fill="#000000" stroke="none">
<path d="M2085 2081 c-33 -8 -91 -37 -98 -48 -3 -5 4 -47 15 -94 l20 -86 36
19 c79 40 147 12 145 -61 -2 -74 -68 -148 -177 -196 l-54 -24 0 -80 c0 -52 4
-81 11 -83 12 -4 163 -10 326 -12 l95 -1 3 75 c2 41 5 83 7 93 4 18 4 18 -82
19 l-53 1 52 52 c61 62 89 114 91 170 7 176 -156 300 -337 256z"/>
<path d="M1538 2075 c-2 -2 -23 -5 -48 -8 -158 -19 -284 -168 -294 -345 -12
-236 203 -386 437 -304 54 20 114 55 129 76 4 6 6 77 5 158 -2 124 -4 148 -17
149 -19 1 -127 -2 -197 -4 -29 -2 -55 -6 -59 -10 -4 -4 -8 -34 -9 -67 -1 -66
-6 -62 73 -63 26 -1 32 -5 32 -23 0 -44 -84 -48 -130 -6 -25 22 -32 37 -36 82
-5 47 -2 60 18 89 44 65 129 92 223 71 24 -5 35 -4 36 4 0 6 2 20 4 30 2 10 5
44 7 75 3 52 1 57 -23 68 -23 11 -145 33 -151 28z"/>
<path d="M380 2059 c-91 -10 -169 -61 -206 -133 -21 -42 -25 -123 -7 -166 29
-72 74 -98 180 -106 67 -4 90 -20 70 -48 -19 -26 -116 -24 -187 3 -30 11 -55
20 -56 18 -1 -1 -5 -27 -8 -57 -4 -30 -8 -69 -10 -87 -4 -30 -2 -32 52 -52 87
-31 124 -39 173 -36 156 9 252 98 252 234 0 68 -16 105 -64 143 -33 27 -46 30
-119 33 -55 3 -86 8 -91 17 -23 37 80 59 169 35 28 -8 52 -11 53 -8 0 3 2 24
4 46 3 22 6 58 9 81 6 53 0 61 -58 74 -69 15 -93 17 -156 9z"/>
<path d="M1006 2052 c-3 -6 -40 -165 -52 -231 -3 -14 -7 -28 -9 -31 -2 -4 -7
-22 -10 -40 -3 -18 -9 -38 -12 -43 -3 -5 -24 64 -47 154 l-42 164 -54 -1 c-70
-2 -150 -11 -157 -18 -3 -3 9 -47 27 -98 81 -235 170 -493 170 -496 0 -3 224
9 228 13 3 3 29 92 37 129 3 11 20 76 39 145 89 324 94 342 82 346 -24 8 -196
14 -200 7z"/>
<path d="M1240 1239 c-122 -40 -186 -127 -174 -241 9 -91 70 -143 179 -153 73
-6 105 -25 85 -51 -23 -27 -139 -21 -208 12 -18 8 -35 14 -37 12 -2 -1 -6 -32
-10 -68 -4 -36 -8 -75 -10 -87 -2 -19 8 -26 70 -48 87 -32 149 -37 229 -18
106 24 172 102 180 212 3 40 -2 63 -20 99 -32 64 -72 85 -170 87 -54 1 -78 6
-84 16 -24 38 78 59 173 34 41 -10 47 -10 48 4 0 9 2 24 4 35 2 10 6 45 9 78
4 57 4 59 -22 70 -54 21 -188 25 -242 7z"/>
<path d="M1766 1244 c-34 -12 -86 -44 -112 -69 -53 -51 -95 -171 -95 -270 1
-198 118 -330 285 -324 68 3 144 26 156 49 4 8 11 51 15 95 4 44 9 87 10 96 3
13 -8 10 -49 -12 -29 -16 -73 -32 -97 -35 -40 -5 -48 -3 -77 24 -18 16 -32 34
-32 39 0 5 19 10 42 12 23 1 44 4 48 6 3 2 33 7 65 11 33 4 69 8 80 10 11 1
34 3 50 3 l31 1 -1 73 c-3 151 -50 244 -145 285 -45 19 -127 22 -174 6z m124
-203 c14 -27 13 -61 -2 -66 -28 -9 -118 -11 -118 -3 0 13 20 50 38 71 21 23
69 22 82 -2z"/>
<path d="M841 1166 c-1 -77 -11 -207 -17 -217 -2 -4 -6 -24 -10 -45 -9 -61
-31 -103 -59 -116 -41 -19 -50 0 -50 105 0 103 7 152 34 250 l18 67 -66 1
c-36 0 -85 2 -108 4 -51 5 -60 -5 -68 -75 -3 -30 -8 -68 -11 -85 -3 -16 -5
-78 -6 -137 -1 -102 1 -111 31 -173 61 -124 148 -159 268 -109 8 4 10 -5 7
-26 l-5 -31 93 7 c51 3 94 7 94 8 2 1 11 101 20 211 3 44 7 87 9 95 2 8 6 53
10 100 4 47 8 92 10 100 2 8 6 42 10 75 l6 61 -104 0 -105 0 -1 -70z"/>
<path d="M355 1169 c-11 -6 -36 -21 -55 -34 -19 -12 -62 -39 -95 -60 -33 -21
-77 -49 -98 -63 l-37 -25 3 -76 c2 -42 6 -81 10 -88 8 -12 297 -187 300 -182
20 33 68 149 64 155 -3 5 -53 32 -111 59 -58 28 -106 53 -106 56 0 3 47 30
105 59 58 29 105 57 105 62 0 14 -54 148 -60 148 -3 0 -14 -6 -25 -11z"/>
<path d="M2158 1104 l-37 -75 115 -56 c64 -30 112 -59 107 -63 -4 -4 -53 -31
-108 -60 -55 -29 -101 -54 -102 -54 -1 -1 58 -147 63 -154 1 -2 72 41 158 95
l156 97 -4 84 c-3 56 -9 88 -18 94 -15 10 -168 101 -236 140 -26 15 -50 27
-53 28 -3 0 -21 -34 -41 -76z"/>
</g>
</svg>
