<?xml version="1.0" standalone="no"?>
<!DOCTYPE svg PUBLIC "-//W3C//DTD SVG 20010904//EN"
 "http://www.w3.org/TR/2001/REC-SVG-20010904/DTD/svg10.dtd">
<svg version="1.0" xmlns="http://www.w3.org/2000/svg"
 width="260.000000pt" height="260.000000pt" viewBox="0 0 260.000000 260.000000"
 preserveAspectRatio="xMidYMid meet">
<metadata>
Created by potrace 1.11, written by Peter Selinger 2001-2013
</metadata>
<g transform="translate(0.000000,260.000000) scale(0.100000,-0.100000)"
fill="#000000" stroke="none">
<path d="M1825 2512 c-88 -25 -162 -47 -164 -49 -3 -2 0 -23 6 -46 8 -29 8
-43 1 -46 -28 -10 -188 -125 -227 -163 -105 -103 -190 -243 -232 -381 -21 -70
-39 -99 -39 -63 0 8 -25 101 -55 207 -47 164 -53 195 -40 202 24 13 45 62 39
93 -15 92 -120 122 -179 52 -42 -50 -28 -125 29 -151 17 -8 37 -16 45 -19 13
-4 36 -76 133 -418 21 -75 26 -195 9 -213 -5 -5 -41 -17 -81 -27 -39 -10 -74
-21 -77 -24 -3 -3 1 -29 10 -58 9 -29 37 -129 63 -223 26 -93 49 -172 51 -175
2 -2 17 1 33 7 35 13 40 5 33 -58 -23 -214 -118 -385 -281 -500 l-43 -30 -10
30 c-6 17 -15 31 -19 31 -4 0 -48 -12 -96 -26 -49 -14 -96 -27 -104 -29 -41
-10 -135 -36 -137 -39 -4 -4 88 -330 96 -338 3 -4 67 10 141 31 74 21 150 42
169 46 31 7 33 9 28 39 -3 17 -8 38 -12 47 -4 12 12 27 65 58 136 81 261 221
323 363 28 64 67 197 67 230 0 12 3 19 6 16 3 -3 32 -101 65 -218 54 -191 63
-250 40 -250 -12 0 -31 -48 -31 -78 0 -60 64 -106 126 -92 56 13 91 67 79 121
-8 34 -58 79 -88 79 -20 0 -25 11 -46 88 -13 48 -30 107 -37 132 -17 58 -48
167 -73 255 -27 92 -32 142 -18 153 7 6 50 20 97 33 47 12 86 23 87 24 1 0
-25 98 -59 216 -33 117 -61 220 -61 227 0 14 -20 15 -65 2 l-34 -9 7 47 c4 26
8 54 10 62 5 34 27 108 47 155 46 111 123 207 227 287 64 48 91 59 91 36 1
-39 15 -40 131 -8 63 18 138 38 167 45 30 8 56 15 58 17 7 8 -91 341 -101 343
-5 2 -82 -18 -170 -43z m-426 -1176 c17 -60 28 -113 23 -117 -4 -4 -52 -19
-106 -34 -55 -14 -103 -28 -107 -30 -10 -7 -78 220 -68 228 6 6 201 63 216 63
6 1 25 -48 42 -110z"/>
</g>
</svg>
